<svg xmlns="http://www.w3.org/2000/svg" viewBox="0 0 1236.88 646.73"><path d="M821.64,2.73c11.35,5.79,18.7,19.38,21.71,39.74,8,54.37-3.33,105.14-24.46,154.62-18.48,43.28-44.95,82.11-68.61,122.51-23.37,39.91-45.43,80.27-52.31,127.13-8,54.17,11.09,101.51,51.79,125.39,46.9,27.51,111.08,24.26,152-8.11,47.64-37.69,80.62-85.7,101.17-142.69,11.5-31.88,20.29-64.8,35.44-95.3,23.1-46.48,66.83-71.77,113.48-67.33,50.05,4.77,93.75,61.53,83.54,115.3-6,31.39-20,58.86-35.3,86.13-4.63,8.23-10.35,16-11.48,25.84-1.25,10.71-1,20,12.31,24.06,16.59,5.08,22.39,17.74,17.13,33.61-5.67,17.07-19.48,21.35-36.16,18-41-8.2-63.12-56.45-45-101.22,7.86-19.4,19.1-37.44,28.83-56.08,8-15.22,13.92-31,13.11-48.51-.78-16.92-8.37-30-23.45-37.92s-29-3.83-42.18,5.08c-15.38,10.37-24,25.58-30.28,42.38-12.29,33.06-23.51,66.53-36.73,99.21-22.35,55.21-58.61,100.13-103.54,139.23-90.63,78.86-269.67,49.35-298-91.3-.79-3.9-2.11-7.7-3.88-14-19.57,8-38.26,16-59.21,13.68-21.31-2.33-36.58-13.44-47.67-29.91-8.11-1.86-12.24,3.77-17.37,6.52-21.54,11.56-44.26,17.36-68.78,15-50.21-4.85-84-45.68-74.26-94.81,12-60.18,46.61-105,104-129.55,30.32-13,60.61-10,86.5,11.34s32.41,50.56,27,82.88c-3.36,20-11.9,39.07-10.43,59.9.56,8-1.1,17.84,7.54,21.76,8,3.63,15.86-1.76,22.73-6.2,19-12.27,33.09-29.58,39.77-50.37,18.09-56.3,49.28-105.58,79.47-155.53,26.8-44.33,51.42-89.49,57.87-142.14C790,84,792,66.76,786.43,50.58c-8.1-23.75,3.82-42.23,12.07-47.32C805.09-.82,814-1.15,821.64,2.73ZM535.21,356.07c-.18-22.95-16.8-33.28-39.41-23.1-30,13.52-48,38.8-61.18,67.65-5.63,12.31-10.62,26,.59,37.93,11.84,12.6,26.8,11.12,41.57,6C505.56,434.69,535.46,389.13,535.21,356.07Z" fill="#fff"/><path d="M5.14,404.55c7.6-28.32,21-52.94,45.16-70.64,18.46-13.54,36.4-12.66,47,1.74,10.2,13.8,6.28,28.59-12.08,43-13.51,10.56-21,24.33-25,40.7-18.63,75.63,31.93,141.76,105.94,138,36.53-1.85,60-23.15,76.5-53.31,16.63-30.39,21.43-64,24.55-97.91,4.78-52,9.43-103.94,29.05-153.23,38.87-97.62,133.83-161,229.92-152.88,51.15,4.34,91.75,39.92,101.42,88.56,3.46,17.41-3.1,29.47-19.38,35.34-14.56,5.26-31.57-3-34.52-19.63-7.17-40.54-45.67-56.38-90-46.17C399.15,177.58,355,235.9,335.92,316.8c-10,42.42-10.4,86.08-16.55,129-5.46,38.16-17.11,73.93-39.87,105.47-37.82,52.42-89.85,71.33-152.08,59.2C62.26,597.77,22.74,556.11,5.68,492.82-4.58,454.76,1.48,418.2,5.14,404.55Z" fill="#fff"/><path d="M961.68,349.81c-4.38-43.18-35.55-71.33-79.1-71.42-69.9-.15-150.85,93.25-140.61,162.25.29,2,.79,4,1.26,5.95,10,42,52,68.51,98.79,62.25C910.38,499.71,969,421.83,961.68,349.81ZM845.77,450.24c-14.2,4.67-28.34,5.73-39.93-5.7-11.87-11.7-7-25.39-1.52-37.72,13.22-29.65,31.65-55.36,62.56-68.9,22.53-9.87,38.34.84,38,24.45C904.5,396.84,875.11,440.6,845.77,450.24Z" fill="#fff"/></svg>
